Gamer-thin.ufo
<glyph name="H" format="1">
  <advance width="723.0"/>
  <unicode hex="0048"/>
  <outline>
    <contour>
      <point x="123" y="0" type="line"/>
      <point x="140" y="0" type="line"/>
      <point x="140" y="680" type="line"/>
      <point x="123" y="680" type="line"/>
    </contour>
    <contour>
      <point x="132" y="321" type="line"/>
      <point x="592" y="321" type="line"/>
      <point x="592" y="338" type="line"/>
      <point x="132" y="338" type="line"/>
    </contour>
    <contour>
      <point x="583" y="0" type="line"/>
      <point x="600" y="0" type="line"/>
      <point x="600" y="680" type="line"/>
      <point x="583" y="680" type="line"/>
    </contour>
  </outline>
</glyph>
<glyph name="a" format="1">
  <advance width="549.0"/>
  <unicode hex="0061"/>
  <outline>
    <contour>
      <point x="408" y="0" type="line"/>
      <point x="408" y="104" type="line"/>
      <point x="418" y="98" type="line"/>
      <point x="407" y="98" type="line"/>
      <point x="407" y="285" type="line" smooth="yes"/>
      <point x="407" y="364"/>
      <point x="399" y="402"/>
      <point x="376" y="425" type="curve" smooth="yes"/>
      <point x="350" y="451"/>
      <point x="311" y="461"/>
      <point x="240" y="461" type="curve" smooth="yes"/>
      <point x="186" y="461"/>
      <point x="136" y="454"/>
      <point x="91" y="439" type="curve"/>
      <point x="95" y="457" type="line"/>
      <point x="138" y="470"/>
      <point x="191" y="477"/>
      <point x="241" y="477" type="curve" smooth="yes"/>
      <point x="316" y="477"/>
      <point x="358" y="465"/>
      <point x="386" y="437" type="curve" smooth="yes"/>
      <point x="411" y="412"/>
      <point x="421" y="369"/>
      <point x="421" y="284" type="curve" smooth="yes"/>
      <point x="421" y="10" type="line"/>
      <point x="418" y="16" type="line"/>
      <point x="436" y="16"/>
      <point x="462" y="16"/>
      <point x="500" y="16" type="curve"/>
      <point x="500" y="0" type="line"/>
    </contour>
    <contour>
      <point x="234" y="-10" type="curve" smooth="yes" name="SP"/>
      <point x="170" y="-10"/>
      <point x="125" y="2"/>
      <point x="101" y="26" type="curve" smooth="yes"/>
      <point x="80" y="47"/>
      <point x="69" y="77"/>
      <point x="69" y="112" type="curve" smooth="yes"/>
      <point x="69" y="147"/>
      <point x="80" y="177"/>
      <point x="101" y="198" type="curve" smooth="yes"/>
      <point x="125" y="222"/>
      <point x="170" y="234"/>
      <point x="234" y="234" type="curve" smooth="yes" name="SP"/>
      <point x="293" y="234"/>
      <point x="339" y="224"/>
      <point x="368" y="206" type="curve" smooth="yes"/>
      <point x="391" y="191"/>
      <point x="405" y="168"/>
      <point x="409" y="141" type="curve"/>
      <point x="411" y="141" type="line"/>
      <point x="407" y="138" type="line"/>
      <point x="392" y="191"/>
      <point x="332" y="218"/>
      <point x="235" y="218" type="curve" smooth="yes" name="SP"/>
      <point x="130" y="218"/>
      <point x="84" y="188"/>
      <point x="84" y="112" type="curve" smooth="yes"/>
      <point x="84" y="36"/>
      <point x="130" y="6"/>
      <point x="235" y="6" type="curve" smooth="yes" name="SP"/>
      <point x="333" y="6"/>
      <point x="387" y="37"/>
      <point x="407" y="105" type="curve"/>
      <point x="410" y="102" type="line"/>
      <point x="405" y="73"/>
      <point x="393" y="49"/>
      <point x="375" y="31" type="curve" smooth="yes"/>
      <point x="347" y="3"/>
      <point x="302" y="-10"/>
    </contour>
  </outline>
</glyph>
<glyph name="b" format="1">
  <advance width="600.0"/>
  <unicode hex="0062"/>
  <outline>
    <contour>
      <point x="129" y="0" type="line"/>
      <point x="129" y="655" type="line"/>
      <point x="134" y="651" type="line"/>
      <point x="47" y="651" type="line"/>
      <point x="47" y="667" type="line"/>
      <point x="143" y="667" type="line"/>
      <point x="143" y="127" type="line"/>
      <point x="143" y="0" type="line"/>
    </contour>
    <contour>
      <point x="324" y="-10" type="curve" smooth="yes" name="SP"/>
      <point x="219" y="-10"/>
      <point x="149" y="46"/>
      <point x="142" y="136" type="curve"/>
      <point x="143" y="139" type="line"/>
      <point x="154" y="94"/>
      <point x="177" y="58"/>
      <point x="211" y="35" type="curve" smooth="yes"/>
      <point x="241" y="15"/>
      <point x="280" y="6"/>
      <point x="325" y="6" type="curve" smooth="yes" name="SP"/>
      <point x="375" y="6"/>
      <point x="412" y="21"/>
      <point x="440" y="49" type="curve" smooth="yes"/>
      <point x="477" y="86"/>
      <point x="497" y="147"/>
      <point x="497" y="234" type="curve" smooth="yes"/>
      <point x="497" y="321"/>
      <point x="477" y="381"/>
      <point x="440" y="418" type="curve" smooth="yes"/>
      <point x="412" y="446"/>
      <point x="375" y="461"/>
      <point x="325" y="461" type="curve" smooth="yes" name="SP"/>
      <point x="280" y="461"/>
      <point x="241" y="452"/>
      <point x="211" y="432" type="curve" smooth="yes"/>
      <point x="176.89602306204273" y="408.9296626596171"/>
      <point x="154.10080185987593" y="373.412371244947"/>
      <point x="143" y="328" type="curve"/>
      <point x="142" y="331" type="line"/>
      <point x="149.04798006964458" y="420.6100323140525"/>
      <point x="219.0" y="477.0"/>
      <point x="324" y="477" type="curve" smooth="yes" name="SP"/>
      <point x="379" y="477"/>
      <point x="420" y="460"/>
      <point x="451" y="429" type="curve" smooth="yes"/>
      <point x="491" y="389"/>
      <point x="512" y="325"/>
      <point x="512" y="234" type="curve" smooth="yes"/>
      <point x="512" y="143"/>
      <point x="491" y="78"/>
      <point x="451" y="38" type="curve" smooth="yes"/>
      <point x="420" y="7"/>
      <point x="379" y="-10"/>
    </contour>
  </outline>
</glyph>
<glyph name="c" format="1">
  <advance width="548.0"/>
  <unicode hex="0063"/>
  <outline>
    <contour>
      <point x="411" y="338" type="line"/>
      <point x="411" y="438" type="line"/>
      <point x="427" y="444" type="line"/>
      <point x="427" y="338" type="line"/>
    </contour>
    <contour>
      <point x="291" y="-10" type="curve" smooth="yes" name=""/>
      <point x="224" y="-10"/>
      <point x="176" y="9"/>
      <point x="144" y="41" type="curve" smooth="yes" name=""/>
      <point x="105" y="80"/>
      <point x="87" y="148"/>
      <point x="87" y="229" type="curve" smooth="yes"/>
      <point x="87" y="312"/>
      <point x="107" y="381"/>
      <point x="146" y="420" type="curve" smooth="yes" name=""/>
      <point x="179" y="453"/>
      <point x="229" y="467"/>
      <point x="285" y="467" type="curve" smooth="yes" name=""/>
      <point x="331" y="467"/>
      <point x="379" y="457"/>
      <point x="427" y="444" type="curve"/>
      <point x="420" y="429" type="line"/>
      <point x="357" y="446"/>
      <point x="327" y="451"/>
      <point x="282" y="451" type="curve" smooth="yes"/>
      <point x="233" y="451"/>
      <point x="187" y="441"/>
      <point x="154" y="408" type="curve" smooth="yes" name=""/>
      <point x="118" y="372"/>
      <point x="102" y="311"/>
      <point x="102" y="229" type="curve" smooth="yes"/>
      <point x="102" y="150"/>
      <point x="118" y="89"/>
      <point x="154" y="53" type="curve" smooth="yes" name=""/>
      <point x="185" y="22"/>
      <point x="228" y="6"/>
      <point x="291" y="6" type="curve" smooth="yes" name=""/>
      <point x="346" y="6"/>
      <point x="388" y="19"/>
      <point x="436" y="42" type="curve"/>
      <point x="436" y="24" type="line"/>
      <point x="388" y="2"/>
      <point x="347" y="-10"/>
    </contour>
  </outline>
</glyph>
<glyph name="d" format="1">
  <advance width="597"/>
  <unicode hex="0064"/>
  <outline>
    <contour>
      <point x="281" y="-10" type="curve" smooth="yes" name="SP"/>
      <point x="226" y="-10"/>
      <point x="185" y="7"/>
      <point x="154" y="38" type="curve" smooth="yes"/>
      <point x="114" y="78"/>
      <point x="93" y="142"/>
      <point x="93" y="233" type="curve" smooth="yes"/>
      <point x="93" y="324"/>
      <point x="114" y="389"/>
      <point x="154" y="429" type="curve" smooth="yes"/>
      <point x="185" y="460"/>
      <point x="226" y="477"/>
      <point x="281" y="477" type="curve" smooth="yes" name="SP"/>
      <point x="386" y="477"/>
      <point x="456" y="421"/>
      <point x="463" y="331" type="curve"/>
      <point x="462" y="328" type="line"/>
      <point x="451" y="373"/>
      <point x="428" y="409"/>
      <point x="394" y="432" type="curve" smooth="yes"/>
      <point x="364" y="452"/>
      <point x="325" y="461"/>
      <point x="280" y="461" type="curve" smooth="yes" name="SP"/>
      <point x="230" y="461"/>
      <point x="193" y="446"/>
      <point x="165" y="418" type="curve" smooth="yes"/>
      <point x="128" y="381"/>
      <point x="108" y="320"/>
      <point x="108" y="233" type="curve" smooth="yes"/>
      <point x="108" y="146"/>
      <point x="128" y="86"/>
      <point x="165" y="49" type="curve" smooth="yes"/>
      <point x="193" y="21"/>
      <point x="230" y="6"/>
      <point x="280" y="6" type="curve" smooth="yes" name="SP"/>
      <point x="325" y="6"/>
      <point x="364" y="15"/>
      <point x="394" y="35" type="curve" smooth="yes"/>
      <point x="428" y="58"/>
      <point x="451" y="94"/>
      <point x="462" y="139" type="curve"/>
      <point x="463" y="136" type="line"/>
      <point x="456" y="46"/>
      <point x="386" y="-10"/>
    </contour>
    <contour>
      <point x="462" y="0" type="line"/>
      <point x="462" y="127" type="line"/>
      <point x="462" y="655" type="line"/>
      <point x="467" y="651" type="line"/>
      <point x="380" y="651" type="line"/>
      <point x="380" y="667" type="line"/>
      <point x="476" y="667" type="line"/>
      <point x="476" y="0" type="line"/>
    </contour>
  </outline>
</glyph>
<glyph name="e" format="1">
  <advance width="580.0"/>
  <unicode hex="0065"/>
  <outline>
    <contour>
      <point x="301" y="-10" type="curve" smooth="yes" name=""/>
      <point x="229" y="-10"/>
      <point x="177" y="8"/>
      <point x="144" y="41" type="curve" smooth="yes" name=""/>
      <point x="105" y="80"/>
      <point x="87" y="148"/>
      <point x="87" y="229" type="curve" smooth="yes"/>
      <point x="87" y="312"/>
      <point x="107" y="381"/>
      <point x="146" y="420" type="curve" smooth="yes" name=""/>
      <point x="179" y="453"/>
      <point x="229" y="467"/>
      <point x="285" y="467" type="curve" smooth="yes" name=""/>
      <point x="343" y="467"/>
      <point x="382" y="452"/>
      <point x="406" y="428" type="curve" smooth="yes" name=""/>
      <point x="445" y="389"/>
      <point x="469" y="305"/>
      <point x="461" y="223" type="curve"/>
      <point x="96" y="223" type="line"/>
      <point x="96" y="239" type="line"/>
      <point x="451" y="239" type="line"/>
      <point x="447" y="234" type="line"/>
      <point x="454" y="305"/>
      <point x="431" y="382"/>
      <point x="397" y="416" type="curve" smooth="yes" name=""/>
      <point x="375" y="438"/>
      <point x="338" y="451"/>
      <point x="282" y="451" type="curve" smooth="yes" name=""/>
      <point x="233" y="451"/>
      <point x="187" y="441"/>
      <point x="154" y="408" type="curve" smooth="yes" name=""/>
      <point x="118" y="372"/>
      <point x="102" y="312"/>
      <point x="102" y="232" type="curve" smooth="yes"/>
      <point x="102" y="226" type="line" smooth="yes"/>
      <point x="102" y="148"/>
      <point x="118" y="89"/>
      <point x="154" y="53" type="curve" smooth="yes" name=""/>
      <point x="186" y="21"/>
      <point x="233" y="6"/>
      <point x="301" y="6" type="curve" smooth="yes" name=""/>
      <point x="360" y="6"/>
      <point x="405" y="18"/>
      <point x="456" y="42" type="curve"/>
      <point x="456" y="24" type="line"/>
      <point x="405" y="1"/>
      <point x="361" y="-10"/>
    </contour>
  </outline>
</glyph>
<glyph name="f" format="1">
  <advance width="362"/>
  <unicode hex="0066"/>
  <outline>
    <contour>
      <point x="373" y="457" type="line"/>
      <point x="29" y="457" type="line"/>
      <point x="29" y="441" type="line"/>
      <point x="373" y="441" type="line"/>
    </contour>
    <contour>
      <point x="157" y="0" type="line"/>
      <point x="157" y="510" type="line" smooth="yes"/>
      <point x="157" y="564"/>
      <point x="169" y="602"/>
      <point x="194" y="627" type="curve" smooth="yes"/>
      <point x="217" y="650"/>
      <point x="251" y="660"/>
      <point x="303" y="660" type="curve" smooth="yes"/>
      <point x="332" y="660"/>
      <point x="358" y="659"/>
      <point x="380" y="656" type="curve"/>
      <point x="379" y="673" type="line"/>
      <point x="357" y="675"/>
      <point x="333" y="676"/>
      <point x="305" y="676" type="curve" smooth="yes"/>
      <point x="249" y="676"/>
      <point x="209" y="663"/>
      <point x="182" y="636" type="curve" smooth="yes"/>
      <point x="156" y="610"/>
      <point x="143" y="569"/>
      <point x="143" y="511" type="curve" smooth="yes"/>
      <point x="143" y="0" type="line"/>
    </contour>
  </outline>
</glyph>
<glyph name="g" format="1">
  <advance width="578"/>
  <unicode hex="0067"/>
  <outline>
    <contour>
      <point x="281" y="-200" type="curve" smooth="yes"/>
      <point x="235" y="-200"/>
      <point x="176" y="-192"/>
      <point x="113" y="-178" type="curve"/>
      <point x="112" y="-161" type="line"/>
      <point x="175" y="-176"/>
      <point x="230" y="-184"/>
      <point x="279" y="-184" type="curve" smooth="yes"/>
      <point x="355" y="-184"/>
      <point x="399" y="-172"/>
      <point x="426" y="-145" type="curve" smooth="yes"/>
      <point x="452" y="-119"/>
      <point x="462" y="-77"/>
      <point x="462" y="9" type="curve" smooth="yes"/>
      <point x="462" y="330" type="line"/>
      <point x="462" y="457" type="line"/>
      <point x="476" y="457" type="line"/>
      <point x="476" y="8" type="line" smooth="yes"/>
      <point x="476" y="-87"/>
      <point x="466" y="-126"/>
      <point x="434" y="-158" type="curve" smooth="yes"/>
      <point x="406" y="-186"/>
      <point x="356" y="-200"/>
    </contour>
    <contour>
      <point x="281" y="-10" type="curve" smooth="yes" name="SP"/>
      <point x="226" y="-10"/>
      <point x="185" y="6"/>
      <point x="154" y="37" type="curve" smooth="yes"/>
      <point x="114" y="77"/>
      <point x="93" y="142"/>
      <point x="93" y="233" type="curve" smooth="yes"/>
      <point x="93" y="324"/>
      <point x="114" y="389"/>
      <point x="154" y="429" type="curve" smooth="yes"/>
      <point x="185" y="460"/>
      <point x="226" y="477"/>
      <point x="281" y="477" type="curve" smooth="yes" name="SP"/>
      <point x="386" y="477"/>
      <point x="456" y="421"/>
      <point x="463" y="331" type="curve"/>
      <point x="462" y="328" type="line"/>
      <point x="451" y="373"/>
      <point x="428" y="409"/>
      <point x="394" y="432" type="curve" smooth="yes"/>
      <point x="364" y="452"/>
      <point x="325" y="461"/>
      <point x="280" y="461" type="curve" smooth="yes" name="SP"/>
      <point x="230" y="461"/>
      <point x="193" y="446"/>
      <point x="165" y="418" type="curve" smooth="yes"/>
      <point x="128" y="381"/>
      <point x="108" y="320"/>
      <point x="108" y="233" type="curve" smooth="yes"/>
      <point x="108" y="146"/>
      <point x="128" y="85"/>
      <point x="165" y="48" type="curve" smooth="yes"/>
      <point x="193" y="20"/>
      <point x="230" y="6"/>
      <point x="280" y="6" type="curve" smooth="yes" name="SP"/>
      <point x="325" y="6"/>
      <point x="364" y="14"/>
      <point x="394" y="34" type="curve" smooth="yes"/>
      <point x="428" y="57"/>
      <point x="451" y="93"/>
      <point x="462" y="138" type="curve"/>
      <point x="463" y="135" type="line"/>
      <point x="456" y="46"/>
      <point x="386" y="-10"/>
    </contour>
  </outline>
</glyph>
<glyph name="h" format="1">
  <advance width="615"/>
  <unicode hex="0068"/>
  <outline>
    <contour>
      <point x="129" y="0" type="line"/>
      <point x="143" y="0" type="line"/>
      <point x="143" y="667" type="line"/>
      <point x="47" y="667" type="line"/>
      <point x="47" y="651" type="line"/>
      <point x="134" y="651" type="line"/>
      <point x="129" y="655" type="line"/>
    </contour>
    <contour>
      <point x="497" y="0" type="line"/>
      <point x="497" y="290" type="line" smooth="yes"/>
      <point x="497" y="361"/>
      <point x="483" y="408"/>
      <point x="453" y="438" type="curve" smooth="yes"/>
      <point x="425" y="466"/>
      <point x="388" y="477"/>
      <point x="324" y="477" type="curve" smooth="yes" name="SP"/>
      <point x="219" y="477"/>
      <point x="149" y="421"/>
      <point x="142" y="332" type="curve"/>
      <point x="143" y="328" type="line"/>
      <point x="154" y="373"/>
      <point x="178" y="409"/>
      <point x="212" y="432" type="curve" smooth="yes"/>
      <point x="242" y="452"/>
      <point x="280" y="461"/>
      <point x="325" y="461" type="curve" smooth="yes" name="SP"/>
      <point x="382" y="461"/>
      <point x="419" y="450"/>
      <point x="444" y="425" type="curve" smooth="yes"/>
      <point x="471" y="398"/>
      <point x="483" y="355"/>
      <point x="483" y="290" type="curve" smooth="yes"/>
      <point x="483" y="0" type="line"/>
    </contour>
  </outline>
</glyph>
<glyph name="i" format="1">
  <advance width="299"/>
  <unicode hex="0069"/>
  <outline>
    <contour>
      <point x="171" y="0" type="line"/>
      <point x="171" y="457" type="line"/>
      <point x="75" y="457" type="line"/>
      <point x="75" y="441" type="line"/>
      <point x="162" y="441" type="line"/>
      <point x="157" y="445" type="line"/>
      <point x="157" y="0" type="line"/>
    </contour>
    <contour>
      <point x="138" y="636" type="curve" smooth="yes"/>
      <point x="138" y="625"/>
      <point x="145" y="618"/>
      <point x="156" y="618" type="curve" smooth="yes" name=""/>
      <point x="167" y="618"/>
      <point x="174" y="625"/>
      <point x="174" y="636" type="curve" smooth="yes"/>
      <point x="174" y="646"/>
      <point x="167" y="653"/>
      <point x="156" y="653" type="curve" smooth="yes" name=""/>
      <point x="145" y="653"/>
      <point x="138" y="646"/>
    </contour>
  </outline>
</glyph>
<glyph name="m" format="1">
  <advance width="997"/>
  <unicode hex="006D"/>
  <outline>
    <contour>
      <point x="171" y="0" type="line"/>
      <point x="171" y="331" type="line"/>
      <point x="171" y="336" type="line"/>
      <point x="171" y="467" type="line"/>
      <point x="75" y="467" type="line"/>
      <point x="75" y="451" type="line"/>
      <point x="162" y="451" type="line"/>
      <point x="157" y="455" type="line"/>
      <point x="157" y="0" type="line"/>
    </contour>
    <contour>
      <point x="525" y="0" type="line"/>
      <point x="525" y="333" type="line"/>
      <point x="521" y="333" type="line"/>
      <point x="525" y="324" type="line"/>
      <point x="521" y="374"/>
      <point x="507" y="413"/>
      <point x="484" y="436" type="curve" smooth="yes"/>
      <point x="455" y="465"/>
      <point x="419" y="477"/>
      <point x="352" y="477" type="curve" smooth="yes" name="SP"/>
      <point x="247" y="477"/>
      <point x="177" y="421"/>
      <point x="170" y="332" type="curve"/>
      <point x="171" y="328" type="line"/>
      <point x="182" y="373"/>
      <point x="206" y="409"/>
      <point x="240" y="432" type="curve" smooth="yes"/>
      <point x="271" y="451"/>
      <point x="308" y="461"/>
      <point x="353" y="461" type="curve" smooth="yes" name="SP"/>
      <point x="410" y="461"/>
      <point x="447" y="450"/>
      <point x="472" y="425" type="curve" smooth="yes"/>
      <point x="499" y="398"/>
      <point x="511" y="354"/>
      <point x="511" y="290" type="curve" smooth="yes"/>
      <point x="511" y="0" type="line"/>
    </contour>
    <contour>
      <point x="879" y="0" type="line"/>
      <point x="879" y="290" type="line" smooth="yes"/>
      <point x="879" y="364"/>
      <point x="866" y="406"/>
      <point x="833" y="439" type="curve" smooth="yes"/>
      <point x="806" y="466"/>
      <point x="769" y="477"/>
      <point x="706" y="477" type="curve" smooth="yes" name="SP"/>
      <point x="601" y="477"/>
      <point x="531" y="421"/>
      <point x="524" y="332" type="curve"/>
      <point x="525" y="328" type="line"/>
      <point x="536" y="373"/>
      <point x="560" y="409"/>
      <point x="594" y="432" type="curve" smooth="yes"/>
      <point x="625" y="451"/>
      <point x="662" y="461"/>
      <point x="707" y="461" type="curve" smooth="yes" name="SP"/>
      <point x="764" y="461"/>
      <point x="801" y="450"/>
      <point x="826" y="425" type="curve" smooth="yes"/>
      <point x="853" y="398"/>
      <point x="865" y="354"/>
      <point x="865" y="290" type="curve" smooth="yes"/>
      <point x="865" y="0" type="line"/>
    </contour>
  </outline>
</glyph>
<glyph name="n" format="1">
  <advance width="643"/>
  <unicode hex="006E"/>
  <outline>
    <contour>
      <point x="171" y="0" type="line"/>
      <point x="157" y="0" type="line"/>
      <point x="157" y="455" type="line"/>
      <point x="162" y="451" type="line"/>
      <point x="75" y="451" type="line"/>
      <point x="75" y="467" type="line"/>
      <point x="171" y="467" type="line"/>
      <point x="171" y="336" type="line"/>
      <point x="171" y="331" type="line"/>
    </contour>
    <contour>
      <point x="525" y="0" type="line"/>
      <point x="511" y="0" type="line"/>
      <point x="511" y="290" type="line" smooth="yes"/>
      <point x="511" y="355"/>
      <point x="499" y="398"/>
      <point x="472" y="425" type="curve" smooth="yes"/>
      <point x="447" y="450"/>
      <point x="410" y="461"/>
      <point x="353" y="461" type="curve" smooth="yes" name="SP"/>
      <point x="308" y="461"/>
      <point x="270" y="452"/>
      <point x="240" y="432" type="curve" smooth="yes"/>
      <point x="206" y="409"/>
      <point x="182" y="373"/>
      <point x="171" y="328" type="curve"/>
      <point x="170" y="332" type="line"/>
      <point x="177" y="421"/>
      <point x="247" y="477"/>
      <point x="352" y="477" type="curve" smooth="yes" name="SP"/>
      <point x="416" y="477"/>
      <point x="453" y="466"/>
      <point x="482" y="437" type="curve" smooth="yes"/>
      <point x="511" y="408"/>
      <point x="525" y="361"/>
      <point x="525" y="290" type="curve" smooth="yes"/>
    </contour>
  </outline>
</glyph>
<glyph name="o" format="1">
  <advance width="580.0"/>
  <unicode hex="006F"/>
  <outline>
    <contour>
      <point x="290" y="6" type="curve" smooth="yes" name=""/>
      <point x="345" y="6"/>
      <point x="389" y="22"/>
      <point x="424" y="57" type="curve" smooth="yes"/>
      <point x="458" y="91"/>
      <point x="478" y="150"/>
      <point x="478" y="228" type="curve" smooth="yes"/>
      <point x="478" y="307"/>
      <point x="458" y="366"/>
      <point x="424" y="400" type="curve" smooth="yes"/>
      <point x="389" y="435"/>
      <point x="345" y="451"/>
      <point x="290" y="451" type="curve" smooth="yes" name=""/>
      <point x="235" y="451"/>
      <point x="191" y="435"/>
      <point x="156" y="400" type="curve" smooth="yes"/>
      <point x="122" y="366"/>
      <point x="102" y="307"/>
      <point x="102" y="229" type="curve" smooth="yes"/>
      <point x="102" y="150"/>
      <point x="122" y="91"/>
      <point x="156" y="57" type="curve" smooth="yes"/>
      <point x="191" y="22"/>
      <point x="235" y="6"/>
    </contour>
    <contour>
      <point x="290" y="-10" type="curve" smooth="yes" name=""/>
      <point x="231" y="-10"/>
      <point x="182" y="9"/>
      <point x="145" y="46" type="curve" smooth="yes"/>
      <point x="109" y="82"/>
      <point x="87" y="148"/>
      <point x="87" y="229" type="curve" smooth="yes"/>
      <point x="87" y="309"/>
      <point x="109" y="375"/>
      <point x="145" y="411" type="curve" smooth="yes"/>
      <point x="182" y="448"/>
      <point x="231" y="467"/>
      <point x="290" y="467" type="curve" smooth="yes" name=""/>
      <point x="349" y="467"/>
      <point x="398" y="448"/>
      <point x="435" y="411" type="curve" smooth="yes"/>
      <point x="471" y="375"/>
      <point x="493" y="309"/>
      <point x="493" y="228" type="curve" smooth="yes"/>
      <point x="493" y="148"/>
      <point x="471" y="82"/>
      <point x="435" y="46" type="curve" smooth="yes"/>
      <point x="398" y="9"/>
      <point x="349" y="-10"/>
    </contour>
  </outline>
</glyph>
<glyph name="p" format="1">
  <advance width="592.0"/>
  <unicode hex="0070"/>
  <outline>
    <contour>
      <point x="121" y="-200" type="line"/>
      <point x="135" y="-200" type="line"/>
      <point x="135" y="340" type="line"/>
      <point x="135" y="467" type="line"/>
      <point x="121" y="467" type="line"/>
    </contour>
    <contour>
      <point x="316" y="-10" type="curve" smooth="yes" name="SP"/>
      <point x="371" y="-10"/>
      <point x="412" y="7"/>
      <point x="443" y="38" type="curve" smooth="yes"/>
      <point x="483" y="78"/>
      <point x="504" y="143"/>
      <point x="504" y="234" type="curve" smooth="yes"/>
      <point x="504" y="325"/>
      <point x="483" y="389"/>
      <point x="443" y="429" type="curve" smooth="yes"/>
      <point x="412" y="460"/>
      <point x="371" y="477"/>
      <point x="316" y="477" type="curve" smooth="yes" name="SP"/>
      <point x="211" y="477"/>
      <point x="141" y="421"/>
      <point x="134" y="331" type="curve"/>
      <point x="135" y="328" type="line"/>
      <point x="146" y="373"/>
      <point x="169" y="409"/>
      <point x="203" y="432" type="curve" smooth="yes"/>
      <point x="233" y="452"/>
      <point x="272" y="461"/>
      <point x="317" y="461" type="curve" smooth="yes" name="SP"/>
      <point x="367" y="461"/>
      <point x="404" y="446"/>
      <point x="432" y="418" type="curve" smooth="yes"/>
      <point x="469" y="381"/>
      <point x="489" y="321"/>
      <point x="489" y="234" type="curve" smooth="yes"/>
      <point x="489" y="147"/>
      <point x="469" y="86"/>
      <point x="432" y="49" type="curve" smooth="yes"/>
      <point x="404" y="21"/>
      <point x="367" y="6"/>
      <point x="317" y="6" type="curve" smooth="yes" name="SP"/>
      <point x="272" y="6"/>
      <point x="233" y="15"/>
      <point x="203" y="35" type="curve" smooth="yes"/>
      <point x="169" y="58"/>
      <point x="146" y="94"/>
      <point x="135" y="139" type="curve"/>
      <point x="134" y="136" type="line"/>
      <point x="141" y="46"/>
      <point x="211" y="-10"/>
    </contour>
  </outline>
</glyph>
<glyph name="q" format="1">
  <advance width="597"/>
  <unicode hex="0071"/>
  <outline>
    <contour>
      <point x="462" y="-200" type="line"/>
      <point x="462" y="340" type="line"/>
      <point x="462" y="467" type="line"/>
      <point x="476" y="467" type="line"/>
      <point x="476" y="-200" type="line"/>
    </contour>
    <contour>
      <point x="281" y="-10" type="curve" smooth="yes" name="SP"/>
      <point x="226" y="-10"/>
      <point x="185" y="7"/>
      <point x="154" y="38" type="curve" smooth="yes"/>
      <point x="114" y="78"/>
      <point x="93" y="142"/>
      <point x="93" y="233" type="curve" smooth="yes"/>
      <point x="93" y="324"/>
      <point x="114" y="389"/>
      <point x="154" y="429" type="curve" smooth="yes"/>
      <point x="185" y="460"/>
      <point x="226" y="477"/>
      <point x="281" y="477" type="curve" smooth="yes" name="SP"/>
      <point x="386" y="477"/>
      <point x="456" y="421"/>
      <point x="463" y="331" type="curve"/>
      <point x="462" y="328" type="line"/>
      <point x="451" y="373"/>
      <point x="428" y="409"/>
      <point x="394" y="432" type="curve" smooth="yes"/>
      <point x="364" y="452"/>
      <point x="325" y="461"/>
      <point x="280" y="461" type="curve" smooth="yes" name="SP"/>
      <point x="230" y="461"/>
      <point x="193" y="446"/>
      <point x="165" y="418" type="curve" smooth="yes"/>
      <point x="128" y="381"/>
      <point x="108" y="320"/>
      <point x="108" y="233" type="curve" smooth="yes"/>
      <point x="108" y="146"/>
      <point x="128" y="86"/>
      <point x="165" y="49" type="curve" smooth="yes"/>
      <point x="193" y="21"/>
      <point x="230" y="6"/>
      <point x="280" y="6" type="curve" smooth="yes" name="SP"/>
      <point x="325" y="6"/>
      <point x="364" y="15"/>
      <point x="394" y="35" type="curve" smooth="yes"/>
      <point x="428" y="58"/>
      <point x="451" y="94"/>
      <point x="462" y="139" type="curve"/>
      <point x="463" y="136" type="line"/>
      <point x="456" y="46"/>
      <point x="386" y="-10"/>
    </contour>
  </outline>
</glyph>
<glyph name="r" format="1">
  <advance width="403"/>
  <unicode hex="0072"/>
  <outline>
    <contour>
      <point x="356" y="451" type="line" name="SP"/>
      <point x="326" y="451"/>
      <point x="299" y="447"/>
      <point x="275" y="439" type="curve" smooth="yes"/>
      <point x="219" y="420"/>
      <point x="178" y="379"/>
      <point x="153" y="316" type="curve"/>
      <point x="151" y="320" type="line"/>
      <point x="168" y="410"/>
      <point x="248" y="467"/>
      <point x="357" y="467" type="curve" name="SP"/>
    </contour>
    <contour>
      <point x="140" y="0" type="line"/>
      <point x="140" y="445" type="line"/>
      <point x="145" y="441" type="line"/>
      <point x="58" y="441" type="line"/>
      <point x="58" y="457" type="line"/>
      <point x="154" y="457" type="line"/>
      <point x="154" y="326" type="line"/>
      <point x="154" y="321" type="line"/>
      <point x="154" y="0" type="line"/>
    </contour>
  </outline>
</glyph>
<glyph name="s" format="1">
  <advance width="501"/>
  <unicode hex="0073"/>
  <outline>
    <contour>
      <point x="237" y="-10" type="curve" smooth="yes"/>
      <point x="351" y="-10"/>
      <point x="411" y="36"/>
      <point x="411" y="112" type="curve" smooth="yes"/>
      <point x="411" y="170"/>
      <point x="365" y="211"/>
      <point x="272" y="232" type="curve" smooth="yes"/>
      <point x="220" y="244" type="line" smooth="yes"/>
      <point x="135" y="264"/>
      <point x="102" y="295"/>
      <point x="102" y="350" type="curve" smooth="yes"/>
      <point x="102" y="380"/>
      <point x="109" y="403"/>
      <point x="126" y="420" type="curve" smooth="yes"/>
      <point x="149" y="443"/>
      <point x="191" y="452"/>
      <point x="251" y="452" type="curve" smooth="yes"/>
      <point x="288" y="452"/>
      <point x="325" y="446"/>
      <point x="386" y="431" type="curve"/>
      <point x="394" y="448" type="line"/>
      <point x="347" y="461"/>
      <point x="299" y="467"/>
      <point x="251" y="467" type="curve" smooth="yes"/>
      <point x="138" y="467"/>
      <point x="87" y="429"/>
      <point x="87" y="350" type="curve" smooth="yes"/>
      <point x="87" y="287"/>
      <point x="124" y="252"/>
      <point x="218" y="230" type="curve" smooth="yes"/>
      <point x="270" y="218" type="line" smooth="yes"/>
      <point x="353" y="199"/>
      <point x="396" y="162"/>
      <point x="396" y="112" type="curve" smooth="yes"/>
      <point x="396" y="42"/>
      <point x="340" y="5"/>
      <point x="237" y="5" type="curve" smooth="yes"/>
      <point x="174" y="5"/>
      <point x="121" y="15"/>
      <point x="77" y="34" type="curve"/>
      <point x="75" y="17" type="line"/>
      <point x="121" y="-1"/>
      <point x="176" y="-10"/>
    </contour>
    <contour>
      <point x="378" y="342" type="line"/>
      <point x="394" y="342" type="line"/>
      <point x="394" y="448" type="line"/>
      <point x="378" y="442" type="line"/>
    </contour>
  </outline>
</glyph>
<glyph name="t" format="1">
  <advance width="411"/>
  <unicode hex="0074"/>
  <outline>
    <contour>
      <point x="286" y="-10" type="curve" smooth="yes"/>
      <point x="239" y="-10"/>
      <point x="205" y="2"/>
      <point x="180" y="27" type="curve" smooth="yes"/>
      <point x="155" y="52"/>
      <point x="143" y="88"/>
      <point x="143" y="140" type="curve" smooth="yes"/>
      <point x="143" y="547" type="line"/>
      <point x="157" y="550" type="line"/>
      <point x="157" y="141" type="line" smooth="yes"/>
      <point x="157" y="92"/>
      <point x="167" y="59"/>
      <point x="189" y="37" type="curve" smooth="yes"/>
      <point x="210" y="16"/>
      <point x="240" y="6"/>
      <point x="284" y="6" type="curve" smooth="yes"/>
      <point x="307" y="6"/>
      <point x="326" y="9"/>
      <point x="358" y="18" type="curve"/>
      <point x="357" y="1" type="line"/>
      <point x="331" y="-7"/>
      <point x="308" y="-10"/>
    </contour>
    <contour>
      <point x="38" y="441" type="line"/>
      <point x="38" y="457" type="line"/>
      <point x="329" y="457" type="line"/>
      <point x="329" y="441" type="line"/>
    </contour>
  </outline>
</glyph>
<glyph name="u" format="1">
  <advance width="643"/>
  <unicode hex="0075"/>
  <outline>
    <contour>
      <point x="472" y="467" type="line"/>
      <point x="472" y="136" type="line"/>
      <point x="472" y="131" type="line"/>
      <point x="472" y="0" type="line"/>
      <point x="568" y="0" type="line"/>
      <point x="568" y="16" type="line"/>
      <point x="481" y="16" type="line"/>
      <point x="486" y="12" type="line"/>
      <point x="486" y="467" type="line"/>
    </contour>
    <contour>
      <point x="118" y="467" type="line"/>
      <point x="118" y="177" type="line" smooth="yes"/>
      <point x="118" y="110"/>
      <point x="130" y="65"/>
      <point x="156" y="36" type="curve" smooth="yes"/>
      <point x="184" y="3"/>
      <point x="222" y="-10"/>
      <point x="291" y="-10" type="curve" smooth="yes" name="SP"/>
      <point x="396" y="-10"/>
      <point x="466" y="46"/>
      <point x="473" y="135" type="curve"/>
      <point x="472" y="139" type="line"/>
      <point x="461" y="94"/>
      <point x="437" y="58"/>
      <point x="403" y="35" type="curve" smooth="yes"/>
      <point x="372" y="16"/>
      <point x="335" y="6"/>
      <point x="290" y="6" type="curve" smooth="yes" name="SP"/>
      <point x="233" y="6"/>
      <point x="196" y="17"/>
      <point x="171" y="42" type="curve" smooth="yes"/>
      <point x="144" y="69"/>
      <point x="132" y="113"/>
      <point x="132" y="177" type="curve" smooth="yes"/>
      <point x="132" y="467" type="line"/>
    </contour>
  </outline>
</glyph>
<glyph name="v" format="1">
  <advance width="514.0"/>
  <unicode hex="0076"/>
  <outline>
    <contour>
      <point x="246" y="0" type="line"/>
      <point x="263" y="0" type="line"/>
      <point x="220" y="99" type="line"/>
      <point x="62" y="467" type="line"/>
      <point x="45" y="467" type="line"/>
    </contour>
    <contour>
      <point x="268" y="0" type="line"/>
      <point x="469" y="467" type="line"/>
      <point x="452" y="467" type="line"/>
      <point x="294" y="99" type="line"/>
      <point x="251" y="0" type="line"/>
    </contour>
  </outline>
</glyph>
<glyph name="a.001" format="1">
  <advance width="601"/>
  <outline>
    <contour>
      <point x="281" y="-10" type="curve" smooth="yes" name="SP"/>
      <point x="226" y="-10"/>
      <point x="185" y="6"/>
      <point x="154" y="37" type="curve" smooth="yes"/>
      <point x="114" y="77"/>
      <point x="93" y="142"/>
      <point x="93" y="233" type="curve" smooth="yes"/>
      <point x="93" y="324"/>
      <point x="114" y="389"/>
      <point x="154" y="429" type="curve" smooth="yes"/>
      <point x="185" y="460"/>
      <point x="226" y="477"/>
      <point x="281" y="477" type="curve" smooth="yes" name="SP"/>
      <point x="386" y="477"/>
      <point x="456" y="421"/>
      <point x="463" y="331" type="curve"/>
      <point x="462" y="328" type="line"/>
      <point x="451" y="373"/>
      <point x="428" y="409"/>
      <point x="394" y="432" type="curve" smooth="yes"/>
      <point x="364" y="452"/>
      <point x="325" y="461"/>
      <point x="280" y="461" type="curve" smooth="yes" name="SP"/>
      <point x="230" y="461"/>
      <point x="193" y="446"/>
      <point x="165" y="418" type="curve" smooth="yes"/>
      <point x="128" y="381"/>
      <point x="108" y="320"/>
      <point x="108" y="233" type="curve" smooth="yes"/>
      <point x="108" y="146"/>
      <point x="128" y="85"/>
      <point x="165" y="48" type="curve" smooth="yes"/>
      <point x="193" y="20"/>
      <point x="230" y="6"/>
      <point x="280" y="6" type="curve" smooth="yes" name="SP"/>
      <point x="325" y="6"/>
      <point x="364" y="14"/>
      <point x="394" y="34" type="curve" smooth="yes"/>
      <point x="428" y="57"/>
      <point x="451" y="93"/>
      <point x="462" y="138" type="curve"/>
      <point x="463" y="135" type="line"/>
      <point x="456" y="46"/>
      <point x="386" y="-10"/>
    </contour>
    <contour>
      <point x="476" y="0" type="line"/>
      <point x="462" y="0" type="line"/>
      <point x="462" y="127" type="line"/>
      <point x="462" y="330" type="line"/>
      <point x="462" y="457" type="line"/>
      <point x="476" y="457" type="line"/>
    </contour>
  </outline>
</glyph>
